<?xml version="1.0" encoding="UTF-8"?>
<svg xmlns="http://www.w3.org/2000/svg" xmlns:xlink="http://www.w3.org/1999/xlink" width="87px" height="85px" viewBox="0 0 87 85" version="1.1">
<g id="surface1">
<path style=" stroke:none;fill-rule:nonzero;fill:rgb(0%,0%,0%);fill-opacity:1;" d="M 39.714844 84.933594 C 34.46875 84.445312 30.230469 83.367188 25.144531 81.234375 C 23.914062 80.714844 21.511719 79.503906 20.40625 78.84375 C 19.304688 78.183594 17.265625 76.800781 16.308594 76.070312 C 12.28125 72.976562 8.539062 68.675781 5.933594 64.144531 C 5.285156 63.015625 3.921875 60.300781 3.386719 59.074219 C 0.445312 52.320312 -0.589844 45.046875 0.316406 37.492188 C 0.617188 34.988281 0.957031 33.292969 1.707031 30.574219 C 3.046875 25.707031 4.957031 21.683594 7.882812 17.570312 C 11.621094 12.320312 15.804688 8.578125 21.496094 5.386719 C 26.644531 2.503906 32.25 0.816406 39.039062 0.101562 C 40.476562 -0.0507812 45.171875 -0.0273438 47.003906 0.140625 C 51.316406 0.53125 55.019531 1.253906 58.285156 2.339844 C 61.851562 3.523438 65.207031 5.207031 68.777344 7.597656 C 71.46875 9.398438 73.347656 10.9375 75.5 13.097656 C 77.269531 14.878906 78.785156 16.753906 80.238281 18.960938 C 84.433594 25.34375 87.035156 34.082031 87.035156 41.8125 C 87.035156 46.371094 86.421875 50.097656 84.945312 54.550781 C 83.433594 59.121094 80.992188 63.695312 77.761719 68 C 75.589844 70.898438 73.339844 73.234375 70.640625 75.398438 C 63.539062 81.082031 55.953125 84.09375 46.722656 84.902344 C 45.214844 85.03125 40.976562 85.054688 39.714844 84.933594 Z M 46.960938 83.875 C 55.851562 83.039062 62.949219 80.121094 69.730469 74.515625 C 70.824219 73.609375 73.523438 70.929688 74.570312 69.707031 C 76.640625 67.292969 78.785156 64.269531 80.796875 60.941406 C 82.363281 58.339844 83.851562 54.90625 84.625 52.097656 C 84.773438 51.554688 84.878906 51.09375 84.855469 51.074219 C 84.835938 51.050781 84.804688 51.046875 84.789062 51.066406 C 84.734375 51.136719 84.246094 52.421875 83.898438 53.402344 C 83.558594 54.375 82.488281 56.519531 81.953125 57.304688 C 81.828125 57.484375 81.582031 57.71875 81.398438 57.820312 C 81.113281 57.980469 81.054688 58.066406 80.925781 58.480469 C 80.710938 59.1875 79.9375 60.152344 78.539062 61.472656 C 77.875 62.09375 77.078125 62.867188 76.765625 63.183594 L 76.195312 63.761719 L 75.824219 63.675781 C 75.617188 63.628906 75.382812 63.558594 75.300781 63.511719 C 74.957031 63.328125 75.21875 62.34375 76.074219 60.648438 L 76.660156 59.488281 L 76.738281 58.46875 C 76.90625 56.332031 77.042969 55.859375 78.222656 53.320312 C 78.570312 52.578125 79.042969 51.492188 79.28125 50.902344 C 79.6875 49.878906 79.707031 49.796875 79.707031 49.109375 L 79.707031 48.386719 L 79.015625 46.992188 C 78.632812 46.226562 78.320312 45.558594 78.320312 45.507812 C 78.320312 45.457031 78.464844 45.175781 78.636719 44.882812 C 79.160156 43.996094 79.375 42.574219 79.042969 42.160156 C 78.902344 41.988281 78.820312 41.972656 78.054688 41.945312 L 77.214844 41.921875 L 77.125 41.589844 C 76.910156 40.789062 76.628906 40.507812 76.035156 40.507812 C 75.238281 40.507812 74.316406 40.816406 73.683594 41.296875 C 73.445312 41.480469 73.222656 41.566406 72.8125 41.628906 C 72.0625 41.746094 71.984375 41.796875 71.984375 42.175781 C 71.984375 42.453125 71.960938 42.488281 71.800781 42.488281 C 71.699219 42.488281 71.316406 42.394531 70.949219 42.28125 C 70.371094 42.101562 70.082031 42.066406 68.734375 42.015625 C 66.941406 41.945312 66.871094 41.925781 65.699219 41.121094 C 65.300781 40.847656 64.476562 40.375 63.867188 40.070312 L 62.757812 39.515625 L 61.824219 38.125 C 61.308594 37.363281 60.761719 36.511719 60.605469 36.234375 L 60.324219 35.734375 L 60.5 34.6875 C 60.601562 34.113281 60.726562 33.523438 60.789062 33.378906 C 60.847656 33.234375 61.214844 32.804688 61.605469 32.425781 C 62.320312 31.734375 62.414062 31.582031 62.996094 30.222656 C 63.074219 30.039062 63.265625 29.886719 63.722656 29.632812 C 64.390625 29.265625 64.996094 28.730469 65.699219 27.882812 C 66.191406 27.292969 66.203125 27.289062 67.464844 27.089844 C 67.785156 27.039062 68.394531 26.882812 68.820312 26.738281 C 69.800781 26.40625 70.269531 26.34375 70.851562 26.464844 C 71.679688 26.632812 71.976562 26.878906 71.707031 27.179688 C 71.453125 27.457031 71.671875 27.597656 73.6875 28.4375 C 74.703125 28.855469 75.324219 29.042969 75.492188 28.976562 C 75.550781 28.957031 75.644531 28.695312 75.699219 28.402344 C 75.828125 27.6875 75.980469 27.332031 76.160156 27.335938 C 76.238281 27.335938 76.605469 27.386719 76.976562 27.453125 C 77.34375 27.519531 77.953125 27.570312 78.324219 27.570312 L 79 27.570312 L 79.351562 27.214844 C 79.542969 27.019531 79.738281 26.859375 79.785156 26.859375 C 79.976562 26.863281 80.976562 28.15625 82.691406 30.628906 C 84.035156 32.5625 84.207031 32.835938 84.871094 34.117188 C 85.1875 34.730469 85.445312 35.203125 85.445312 35.175781 C 85.453125 35.042969 84.941406 33.757812 84.660156 33.199219 C 83.941406 31.769531 82.433594 29.511719 81.554688 28.542969 C 80.957031 27.882812 80.707031 27.53125 79.625 25.847656 C 79.363281 25.445312 79.113281 25.101562 79.066406 25.082031 C 79.015625 25.0625 78.839844 25.15625 78.675781 25.292969 C 78.4375 25.488281 78.285156 25.546875 77.929688 25.574219 L 77.480469 25.605469 L 77.226562 25.085938 C 76.871094 24.367188 75.992188 23.1875 75.726562 23.078125 C 75.609375 23.027344 75.339844 22.960938 75.132812 22.929688 C 74.777344 22.875 74.757812 22.882812 74.757812 23.058594 C 74.757812 23.578125 74.925781 23.847656 75.726562 24.636719 C 76.167969 25.074219 76.511719 25.445312 76.492188 25.460938 C 76.476562 25.480469 76.113281 25.46875 75.6875 25.441406 L 74.914062 25.390625 L 74.019531 24.277344 C 73.527344 23.667969 73.039062 23.125 72.933594 23.070312 C 72.824219 23.015625 72.5 22.972656 72.210938 22.96875 C 71.691406 22.96875 71.679688 22.964844 71.507812 22.6875 C 71.324219 22.390625 70.898438 22.136719 70.015625 21.804688 C 69.734375 21.699219 69.351562 21.519531 69.160156 21.410156 C 68.972656 21.300781 68.8125 21.238281 68.808594 21.277344 C 68.765625 21.609375 69.011719 22.546875 69.203125 22.761719 C 69.273438 22.847656 69.582031 23.074219 69.886719 23.273438 C 70.191406 23.46875 70.625 23.796875 70.851562 24.003906 C 71.117188 24.242188 71.503906 24.476562 71.957031 24.671875 C 72.804688 25.03125 73.015625 25.160156 73.015625 25.3125 C 73.015625 25.460938 72.808594 25.460938 72.09375 25.3125 C 71.40625 25.167969 71.316406 25.136719 70.933594 24.898438 C 70.769531 24.792969 70.601562 24.730469 70.5625 24.753906 C 70.519531 24.78125 70.390625 24.980469 70.273438 25.199219 C 70.105469 25.503906 70.019531 25.589844 69.894531 25.574219 C 69.75 25.550781 69.730469 25.496094 69.734375 25.113281 C 69.738281 24.875 69.769531 24.515625 69.800781 24.320312 L 69.859375 23.960938 L 69.191406 23.621094 C 68.820312 23.4375 68.277344 23.070312 67.984375 22.808594 C 67.6875 22.550781 67.386719 22.335938 67.308594 22.335938 C 67.121094 22.335938 66.703125 22.695312 66.632812 22.914062 C 66.601562 23.011719 66.539062 23.390625 66.488281 23.757812 C 66.390625 24.488281 66.417969 24.457031 65.691406 24.734375 C 65.292969 24.886719 65.1875 24.96875 65.03125 25.253906 C 64.917969 25.457031 64.824219 25.789062 64.800781 26.070312 C 64.757812 26.519531 64.769531 26.566406 65.019531 26.875 L 65.285156 27.203125 L 65 27.449219 C 64.417969 27.949219 63.492188 28.4375 62.773438 28.625 L 62.070312 28.804688 L 61.902344 28.582031 C 61.808594 28.457031 61.601562 28.207031 61.445312 28.023438 C 61.046875 27.5625 61.003906 27.457031 60.945312 26.757812 C 60.890625 26.148438 60.636719 25.058594 60.398438 24.4375 C 60.238281 24.011719 60.328125 23.878906 60.839844 23.765625 C 61.15625 23.695312 62.648438 23.535156 63.054688 23.527344 C 63.171875 23.523438 63.113281 22.960938 62.953125 22.472656 C 62.617188 21.464844 62.226562 21.066406 61.574219 21.066406 C 61.125 21.066406 59.933594 20.332031 60.054688 20.132812 C 60.171875 19.941406 60.945312 19.757812 61.652344 19.753906 L 62.363281 19.746094 L 62.5 19.472656 C 62.695312 19.097656 62.675781 18.867188 62.4375 18.648438 L 62.230469 18.457031 L 62.503906 17.230469 L 62.65625 17.441406 C 62.742188 17.558594 62.882812 17.652344 62.96875 17.652344 C 63.101562 17.652344 63.117188 17.617188 63.074219 17.355469 C 63 16.921875 62.875 16.527344 62.746094 16.320312 C 62.683594 16.21875 62.640625 16.058594 62.65625 15.964844 C 62.675781 15.820312 62.738281 15.785156 63.007812 15.765625 C 63.398438 15.738281 63.703125 15.960938 64.027344 16.507812 C 64.214844 16.832031 64.265625 16.867188 64.488281 16.84375 C 64.816406 16.8125 64.792969 16.664062 64.335938 15.976562 C 64.144531 15.6875 63.988281 15.40625 63.988281 15.351562 C 63.988281 15.28125 64.117188 15.269531 64.5 15.308594 C 64.835938 15.347656 65.015625 15.335938 65.015625 15.285156 C 65.015625 15.238281 64.816406 15.066406 64.570312 14.902344 C 63.960938 14.488281 63.828125 14.351562 63.828125 14.136719 C 63.828125 14.035156 63.675781 13.738281 63.492188 13.484375 C 63.308594 13.226562 62.996094 12.746094 62.800781 12.417969 C 62.507812 11.929688 62.40625 11.820312 62.246094 11.820312 C 62.089844 11.820312 62.027344 11.882812 61.953125 12.097656 C 61.832031 12.457031 61.824219 13.011719 61.9375 13.234375 C 61.984375 13.332031 62.191406 13.554688 62.390625 13.734375 L 62.757812 14.0625 L 62.652344 14.351562 C 62.570312 14.578125 62.570312 14.703125 62.640625 14.921875 C 62.710938 15.132812 62.710938 15.226562 62.640625 15.3125 C 62.46875 15.523438 61.902344 15.679688 61.410156 15.65625 L 60.9375 15.628906 L 60.671875 15.128906 C 60.496094 14.796875 60.339844 14.601562 60.199219 14.546875 C 59.640625 14.328125 59.472656 14.238281 59.472656 14.160156 C 59.472656 14.117188 59.640625 13.972656 59.847656 13.84375 C 60.050781 13.710938 60.246094 13.558594 60.273438 13.507812 C 60.355469 13.359375 60.21875 12.617188 59.976562 11.882812 C 59.765625 11.238281 59.765625 11.226562 59.914062 11.058594 C 60.257812 10.679688 60.800781 10.492188 61.6875 10.453125 L 62.523438 10.417969 L 63.195312 10.777344 C 63.566406 10.976562 64.324219 11.335938 64.878906 11.578125 C 66.644531 12.347656 66.835938 12.460938 66.835938 12.753906 C 66.835938 12.855469 66.773438 12.894531 66.601562 12.894531 C 66.261719 12.894531 66.292969 13.109375 66.65625 13.261719 C 67.023438 13.414062 67.472656 13.492188 67.46875 13.398438 C 67.464844 13.035156 67.207031 12.371094 66.890625 11.914062 C 66.5 11.34375 66.4375 11.148438 66.648438 11.148438 C 66.828125 11.148438 67.28125 11.632812 67.769531 12.355469 C 68.179688 12.960938 68.421875 13.128906 68.421875 12.808594 C 68.421875 12.601562 68.238281 12.242188 67.890625 11.761719 L 67.617188 11.386719 L 67.84375 11.386719 C 67.972656 11.386719 68.105469 11.417969 68.148438 11.453125 C 68.238281 11.539062 68.816406 11.652344 68.816406 11.585938 C 68.816406 11.480469 68.378906 10.855469 68.070312 10.519531 C 67.886719 10.320312 67.585938 9.941406 67.402344 9.679688 C 67.21875 9.417969 66.898438 9.023438 66.691406 8.804688 C 66.226562 8.320312 66.15625 8.210938 66.316406 8.210938 C 66.382812 8.210938 66.660156 8.417969 66.933594 8.671875 C 67.992188 9.65625 68.785156 10.226562 69.566406 10.578125 C 69.992188 10.765625 70.46875 10.941406 70.625 10.964844 L 70.917969 11.007812 L 70.402344 10.476562 C 69.246094 9.277344 66.78125 7.441406 64.699219 6.230469 C 61.234375 4.210938 56.96875 2.613281 53.261719 1.945312 C 52.660156 1.839844 51.339844 1.835938 51.273438 1.941406 C 51.246094 1.988281 51.496094 2.152344 51.84375 2.320312 L 52.464844 2.617188 L 51 2.679688 C 49.070312 2.765625 46.398438 2.695312 45.496094 2.535156 C 44.59375 2.378906 42.492188 1.820312 42.128906 1.640625 C 41.976562 1.566406 41.851562 1.453125 41.851562 1.386719 C 41.851562 1.199219 42.363281 0.996094 43.128906 0.878906 C 43.785156 0.78125 43.8125 0.769531 43.527344 0.714844 C 42.871094 0.582031 38.523438 0.847656 36.992188 1.117188 C 36.265625 1.242188 36.03125 1.335938 36.03125 1.5 C 36.03125 1.664062 36.21875 1.707031 37.324219 1.785156 C 38.015625 1.835938 38.410156 1.898438 38.539062 1.984375 C 38.996094 2.285156 38.429688 2.472656 35.4375 3.019531 C 34.347656 3.214844 33.046875 3.480469 32.542969 3.605469 C 31.019531 3.988281 30.636719 4.160156 29.480469 4.992188 C 29.300781 5.121094 29.0625 5.191406 28.648438 5.230469 C 28.332031 5.261719 27.589844 5.355469 27 5.445312 C 26.414062 5.53125 25.554688 5.609375 25.089844 5.621094 C 24.625 5.628906 24.199219 5.675781 24.140625 5.722656 C 24.082031 5.765625 23.410156 6.285156 22.644531 6.875 C 21.882812 7.464844 21.179688 7.988281 21.082031 8.042969 C 20.925781 8.125 20.902344 8.117188 20.902344 7.988281 C 20.902344 7.8125 21.503906 7.234375 22.585938 6.363281 C 23.328125 5.765625 23.632812 5.433594 23.433594 5.433594 C 23.101562 5.433594 20.558594 6.875 18.765625 8.078125 C 16.199219 9.796875 13.667969 11.976562 11.824219 14.050781 C 10.3125 15.753906 8.433594 18.164062 7.878906 19.121094 C 7.742188 19.355469 7.742188 19.355469 7.886719 19.191406 C 7.96875 19.101562 8.355469 18.617188 8.746094 18.121094 C 9.648438 16.972656 11.863281 14.480469 12.21875 14.207031 C 12.691406 13.84375 15.5625 12.753906 15.800781 12.84375 C 15.855469 12.863281 15.976562 13.125 16.074219 13.421875 C 16.171875 13.71875 16.277344 13.992188 16.3125 14.03125 C 16.367188 14.09375 17.980469 13.976562 18.453125 13.875 C 18.632812 13.835938 18.667969 13.867188 18.75 14.140625 C 18.800781 14.308594 18.933594 14.535156 19.046875 14.644531 C 19.234375 14.816406 19.320312 14.835938 19.875 14.828125 C 20.386719 14.820312 20.554688 14.785156 20.835938 14.617188 C 21.027344 14.507812 21.25 14.339844 21.332031 14.25 C 21.546875 14.011719 21.8125 14.039062 22.007812 14.3125 C 22.097656 14.441406 22.171875 14.582031 22.171875 14.628906 C 22.171875 14.800781 22.292969 14.710938 22.460938 14.414062 C 22.6875 14.019531 23.902344 12.390625 24.019531 12.328125 C 24.171875 12.246094 25.222656 12.183594 25.328125 12.25 C 25.464844 12.335938 25.109375 12.628906 24.515625 12.929688 C 24.125 13.128906 23.976562 13.28125 23.4375 14.007812 C 23.09375 14.472656 22.753906 14.878906 22.683594 14.90625 C 22.570312 14.949219 22.585938 14.996094 22.789062 15.230469 C 22.921875 15.378906 23.050781 15.574219 23.078125 15.664062 C 23.105469 15.753906 23.15625 15.828125 23.191406 15.828125 C 23.320312 15.828125 24.191406 15.058594 24.21875 14.917969 C 24.234375 14.835938 24.203125 14.636719 24.148438 14.472656 C 24.003906 14.03125 24.097656 13.808594 24.609375 13.40625 C 25.234375 12.910156 25.914062 12.589844 26.53125 12.503906 C 27.078125 12.429688 27.503906 12.464844 27.433594 12.582031 C 27.410156 12.621094 27.148438 12.792969 26.851562 12.964844 C 26.207031 13.34375 26.046875 13.503906 26.214844 13.613281 C 26.46875 13.773438 26.933594 13.691406 27.398438 13.402344 C 27.925781 13.078125 27.898438 13.074219 28.875 13.539062 C 29.242188 13.710938 29.574219 13.929688 29.648438 14.042969 C 29.796875 14.273438 30.316406 16.09375 30.378906 16.621094 C 30.421875 16.972656 30.410156 17 29.761719 17.851562 C 29.398438 18.332031 28.914062 18.917969 28.679688 19.152344 C 28.203125 19.632812 28.074219 19.648438 27.371094 19.320312 C 27.015625 19.152344 27 19.128906 27 18.808594 L 27 18.472656 L 26.335938 18.308594 C 25.554688 18.113281 25.101562 17.917969 25.101562 17.769531 C 25.101562 17.539062 25.355469 17.515625 26.550781 17.640625 C 27.167969 17.703125 27.175781 17.699219 27.359375 17.480469 C 27.578125 17.21875 27.875 16.464844 27.875 16.171875 C 27.875 15.742188 26.929688 15.0625 26.222656 14.984375 C 25.882812 14.945312 25.820312 14.96875 25.417969 15.277344 C 25.179688 15.460938 24.65625 15.765625 24.253906 15.953125 C 23.855469 16.140625 23.285156 16.457031 22.992188 16.65625 C 22.695312 16.851562 22.441406 17 22.421875 16.980469 C 22.40625 16.960938 22.363281 16.828125 22.335938 16.6875 C 22.285156 16.445312 22.253906 16.425781 21.996094 16.433594 C 21.808594 16.4375 21.519531 16.5625 21.132812 16.804688 C 20.808594 17.003906 20.15625 17.332031 19.675781 17.535156 C 18.488281 18.039062 17.890625 18.382812 17.550781 18.761719 C 17.054688 19.3125 17.082031 19.632812 17.679688 20.296875 C 17.96875 20.617188 18.121094 20.703125 18.792969 20.941406 C 19.816406 21.300781 19.886719 21.367188 19.824219 21.902344 C 19.777344 22.292969 19.789062 22.332031 20.046875 22.613281 L 20.320312 22.914062 L 20.960938 22.699219 C 21.3125 22.582031 21.652344 22.425781 21.71875 22.351562 C 21.785156 22.277344 22.015625 21.890625 22.230469 21.492188 C 22.449219 21.089844 22.785156 20.554688 22.980469 20.296875 C 23.179688 20.042969 23.507812 19.554688 23.710938 19.21875 C 24.238281 18.347656 24.324219 18.320312 25.386719 18.644531 C 26.140625 18.875 26.375 19.089844 26.566406 19.742188 C 26.667969 20.078125 26.835938 21.269531 26.84375 21.679688 C 26.84375 21.738281 27.074219 21.894531 27.351562 22.03125 L 27.863281 22.285156 L 28.222656 21.988281 C 28.421875 21.824219 28.585938 21.65625 28.585938 21.617188 C 28.585938 21.574219 28.617188 21.542969 28.660156 21.542969 C 28.773438 21.542969 29.074219 22.417969 29.085938 22.804688 C 29.097656 23.105469 29.070312 23.171875 28.863281 23.316406 C 28.730469 23.410156 28.441406 23.667969 28.21875 23.890625 C 27.859375 24.25 27.761719 24.300781 27.386719 24.347656 C 26.46875 24.460938 24.980469 24.753906 24.925781 24.832031 C 24.820312 24.976562 24.859375 25.652344 24.976562 25.769531 C 25.039062 25.832031 25.207031 25.929688 25.351562 25.988281 C 25.683594 26.121094 26.050781 26.371094 26.050781 26.464844 C 26.050781 26.589844 25.78125 26.683594 25.179688 26.769531 C 24.742188 26.828125 24.550781 26.894531 24.453125 27.011719 C 24.289062 27.21875 24.292969 27.21875 23.78125 26.96875 C 23.164062 26.664062 22.796875 26.722656 21.679688 27.289062 C 21.1875 27.539062 20.394531 28.007812 19.914062 28.324219 C 19.109375 28.859375 18.835938 29.113281 17.734375 30.316406 C 17.515625 30.558594 17.128906 30.84375 16.71875 31.0625 C 15.488281 31.730469 15.335938 31.855469 15.191406 32.292969 C 15.121094 32.511719 15.042969 32.867188 15.019531 33.082031 C 14.984375 33.429688 15 33.488281 15.183594 33.636719 C 15.578125 33.960938 15.914062 34.304688 15.914062 34.382812 C 15.914062 34.429688 15.832031 34.5625 15.730469 34.679688 L 15.546875 34.894531 L 15.007812 34.605469 C 14.527344 34.351562 14.398438 34.316406 13.882812 34.316406 C 13.371094 34.316406 13.300781 34.300781 13.300781 34.171875 C 13.300781 33.96875 13.617188 33.695312 13.925781 33.632812 C 14.21875 33.574219 14.332031 33.371094 14.332031 32.890625 C 14.332031 32.523438 14.195312 32.371094 13.753906 32.238281 C 13.394531 32.128906 11.296875 32.09375 11.195312 32.191406 C 11.164062 32.226562 11.054688 32.546875 10.949219 32.90625 C 10.734375 33.652344 10.664062 33.757812 10.46875 33.632812 C 10.375 33.574219 10.324219 33.421875 10.308594 33.140625 C 10.277344 32.628906 10.046875 32.414062 9.523438 32.414062 C 8.433594 32.414062 7.074219 33.78125 6.617188 35.332031 C 6.410156 36.050781 6.375 36.851562 6.542969 37.175781 C 6.785156 37.636719 6.953125 37.585938 7.546875 36.863281 C 7.976562 36.34375 8.132812 36.210938 8.402344 36.140625 C 8.765625 36.039062 9.101562 36.09375 9.101562 36.246094 C 9.101562 36.304688 9.015625 36.46875 8.90625 36.617188 C 8.800781 36.761719 8.636719 37.109375 8.542969 37.386719 C 8.34375 37.996094 8.25 38.097656 7.835938 38.164062 C 7.457031 38.230469 7.203125 38.515625 7.203125 38.871094 C 7.203125 39.070312 7.28125 39.1875 7.605469 39.464844 C 7.824219 39.65625 8.0625 39.933594 8.132812 40.078125 C 8.203125 40.226562 8.285156 40.347656 8.316406 40.347656 C 8.398438 40.347656 8.675781 39.65625 8.828125 39.078125 C 8.910156 38.757812 8.941406 38.433594 8.914062 38.214844 L 8.867188 37.867188 L 9.109375 37.917969 C 9.386719 37.972656 9.683594 37.84375 9.964844 37.542969 L 10.15625 37.335938 L 10.457031 37.574219 C 10.847656 37.886719 11.015625 37.84375 11.65625 37.261719 C 12.664062 36.34375 12.851562 36.277344 13.523438 36.578125 L 14 36.792969 L 14.578125 36.59375 C 15.214844 36.375 16.699219 35.984375 16.898438 35.984375 C 17.085938 35.984375 17.050781 36.132812 16.789062 36.429688 C 16.542969 36.710938 16.355469 37.234375 16.433594 37.433594 C 16.503906 37.617188 17.039062 37.824219 17.378906 37.792969 C 17.652344 37.773438 17.71875 37.722656 17.96875 37.34375 L 18.25 36.921875 L 19.992188 36.953125 C 21.085938 36.972656 21.792969 37.015625 21.890625 37.070312 C 21.980469 37.121094 22.191406 37.347656 22.367188 37.578125 C 22.828125 38.175781 22.828125 38.175781 23.71875 38.007812 L 24.492188 37.863281 L 25.609375 38.144531 C 26.964844 38.484375 27.601562 38.722656 27.859375 38.976562 C 28.035156 39.152344 28.046875 39.214844 28.003906 39.644531 C 27.9375 40.289062 27.800781 40.507812 27.15625 41.03125 C 26.675781 41.421875 26.558594 41.570312 26.292969 42.128906 C 25.996094 42.753906 25.96875 42.78125 25.546875 42.957031 C 24.980469 43.191406 24.4375 43.675781 24.132812 44.21875 C 23.921875 44.589844 23.820312 44.683594 23.445312 44.847656 C 21.929688 45.515625 21.375 45.925781 21.027344 46.640625 C 20.917969 46.867188 20.753906 47.390625 20.660156 47.804688 C 20.484375 48.628906 20.359375 48.878906 19.769531 49.59375 C 19.550781 49.855469 19.324219 50.195312 19.257812 50.347656 C 19.101562 50.71875 19.175781 51.542969 19.4375 52.371094 C 19.703125 53.21875 19.699219 53.335938 19.390625 53.402344 C 19.066406 53.472656 18.996094 53.394531 18.644531 52.570312 C 18.246094 51.628906 18.175781 51.535156 17.871094 51.535156 C 17.5625 51.539062 16.109375 51.882812 15.699219 52.054688 C 14.503906 52.554688 13.699219 55.039062 14.273438 56.453125 C 14.546875 57.125 15.214844 57.472656 15.539062 57.113281 C 15.609375 57.035156 15.789062 56.695312 15.941406 56.359375 C 16.109375 55.988281 16.269531 55.742188 16.339844 55.742188 C 16.492188 55.742188 17.507812 55.976562 17.601562 56.035156 C 17.640625 56.058594 17.542969 56.207031 17.390625 56.367188 C 17.234375 56.523438 17.03125 56.832031 16.9375 57.046875 C 16.773438 57.417969 16.769531 57.445312 16.902344 57.523438 C 17.878906 58.105469 18.046875 58.367188 18.054688 59.3125 C 18.058594 59.9375 18.183594 60.414062 18.40625 60.660156 C 18.527344 60.796875 18.53125 60.824219 18.414062 61.050781 C 18.191406 61.476562 17.976562 61.394531 17.15625 60.5625 C 16.683594 60.082031 16.265625 59.742188 15.953125 59.582031 C 15.515625 59.351562 15.402344 59.328125 14.449219 59.285156 C 13.335938 59.234375 12.824219 59.117188 12.074219 58.738281 C 11.542969 58.46875 10.585938 57.851562 10.46875 57.703125 C 10.425781 57.652344 10.328125 57.269531 10.253906 56.851562 C 10.066406 55.859375 9.855469 55.308594 9.113281 53.878906 C 8.410156 52.523438 7.988281 51.511719 7.792969 50.703125 C 7.636719 50.058594 7.519531 49.875 7.519531 50.269531 C 7.519531 50.660156 7.703125 51.382812 8.164062 52.863281 C 8.4375 53.730469 8.550781 54.21875 8.515625 54.355469 C 8.488281 54.46875 8.429688 54.535156 8.386719 54.511719 C 8.25 54.425781 7.707031 53.269531 7.445312 52.503906 C 7.019531 51.261719 6.484375 48.492188 6.433594 47.289062 C 6.382812 46.0625 6.492188 45.527344 7.09375 44.027344 L 7.472656 43.085938 L 7.476562 41.960938 C 7.476562 41.34375 7.457031 40.8125 7.425781 40.785156 C 7.398438 40.757812 7.285156 40.792969 7.171875 40.863281 C 7.0625 40.9375 6.941406 40.976562 6.902344 40.953125 C 6.859375 40.929688 6.730469 40.628906 6.609375 40.289062 C 6.492188 39.953125 6.355469 39.625 6.308594 39.566406 C 6.261719 39.511719 6.007812 39.355469 5.742188 39.222656 C 5.074219 38.886719 4.769531 38.640625 4.5 38.21875 C 4.296875 37.894531 4.273438 37.789062 4.273438 37.210938 C 4.273438 36.492188 4.464844 34.300781 4.59375 33.5625 C 4.640625 33.300781 4.835938 32.425781 5.03125 31.613281 C 5.394531 30.085938 5.429688 29.875 5.3125 29.875 C 5.117188 29.875 4.449219 31.976562 4.148438 33.542969 C 4.074219 33.925781 3.964844 34.300781 3.90625 34.375 C 3.816406 34.496094 3.800781 34.371094 3.800781 33.535156 C 3.796875 32.292969 4.03125 31.070312 4.621094 29.289062 C 5.375 27.003906 6.265625 25.132812 7.625 22.988281 C 9.148438 20.582031 9.722656 19.496094 9.945312 18.582031 C 10.074219 18.054688 10.074219 18.035156 9.917969 17.878906 C 9.648438 17.609375 9.300781 17.828125 8.59375 18.710938 C 7.996094 19.453125 7.792969 19.632812 7.738281 19.460938 C 7.722656 19.414062 7.457031 19.765625 7.148438 20.246094 C 5.160156 23.328125 3.410156 27.441406 2.378906 31.464844 C 1.363281 35.425781 0.945312 38.671875 0.945312 42.609375 C 0.945312 46.46875 1.3125 49.453125 2.21875 52.964844 C 3.34375 57.335938 5.535156 62.105469 8.292969 66.175781 C 12.773438 72.800781 18.671875 77.574219 26.210938 80.675781 C 27.238281 81.097656 27.425781 81.148438 27.992188 81.167969 C 28.480469 81.1875 29.371094 81.378906 31.859375 82 C 33.636719 82.441406 35.253906 82.882812 35.449219 82.972656 C 35.746094 83.113281 35.796875 83.171875 35.761719 83.316406 C 35.71875 83.488281 35.75 83.5 36.960938 83.664062 C 38.042969 83.808594 39.039062 83.902344 40.78125 84.023438 C 41.71875 84.089844 45.71875 83.992188 46.960938 83.875 Z M 29.339844 79.816406 C 28.664062 79.695312 27.535156 79.207031 26.863281 78.738281 C 26.65625 78.59375 26.273438 78.371094 26.015625 78.238281 C 25.578125 78.015625 25.511719 77.945312 25.039062 77.167969 C 23.960938 75.386719 23.390625 73.972656 22.632812 71.175781 C 22.453125 70.519531 22.277344 69.925781 22.238281 69.851562 C 22.199219 69.773438 21.855469 69.453125 21.476562 69.136719 C 20.492188 68.3125 19.125 66.972656 18.699219 66.414062 C 18.5 66.152344 18.128906 65.695312 17.878906 65.402344 C 17.558594 65.027344 17.417969 64.796875 17.417969 64.644531 C 17.417969 64.417969 17.71875 63.886719 18.15625 63.332031 C 18.289062 63.164062 18.460938 62.828125 18.542969 62.585938 C 18.714844 62.058594 19.152344 61.257812 19.429688 60.957031 C 19.566406 60.808594 19.707031 60.742188 19.886719 60.742188 C 20.046875 60.742188 20.324219 60.632812 20.609375 60.457031 C 21.125 60.136719 21.089844 60.132812 22.097656 60.503906 C 22.550781 60.667969 22.921875 60.871094 23.207031 61.109375 C 23.445312 61.304688 24.152344 61.722656 24.785156 62.035156 C 25.890625 62.585938 25.941406 62.621094 26.148438 63.003906 C 26.378906 63.433594 26.652344 64.175781 26.917969 65.085938 C 27.195312 66.03125 27.667969 66.441406 29.605469 67.398438 C 30.21875 67.699219 30.863281 68.058594 31.035156 68.195312 C 31.375 68.464844 31.832031 69.105469 31.832031 69.308594 C 31.832031 69.382812 31.667969 69.632812 31.464844 69.871094 C 31.144531 70.242188 30.488281 71.453125 30.488281 71.667969 C 30.488281 71.773438 30.101562 72.117188 29.71875 72.355469 C 29.238281 72.652344 28.929688 73.003906 28.597656 73.636719 L 28.308594 74.191406 L 27.316406 74.238281 L 27.367188 74.652344 C 27.410156 75.035156 27.398438 75.078125 27.171875 75.292969 L 26.929688 75.523438 L 27.085938 75.832031 C 27.207031 76.066406 27.222656 76.171875 27.160156 76.296875 C 27.113281 76.382812 27.039062 76.453125 26.996094 76.453125 C 26.949219 76.453125 26.9375 76.601562 26.96875 76.84375 C 27.011719 77.167969 26.992188 77.273438 26.855469 77.46875 L 26.6875 77.703125 L 26.910156 78.011719 C 27.269531 78.507812 27.664062 78.71875 28.898438 79.070312 C 30.515625 79.53125 30.972656 79.753906 30.597656 79.894531 C 30.414062 79.96875 30.050781 79.945312 29.339844 79.816406 Z M 20.007812 56.300781 C 19.339844 56.085938 18.289062 55.332031 18.289062 55.0625 C 18.289062 55.007812 18.414062 54.917969 18.570312 54.867188 C 18.820312 54.785156 18.945312 54.808594 19.816406 55.105469 C 21.347656 55.628906 21.796875 55.976562 21.378906 56.3125 C 21.148438 56.5 20.613281 56.492188 20.007812 56.300781 Z M 26.921875 25.871094 C 26.921875 25.613281 27.1875 25.347656 27.972656 24.816406 C 28.410156 24.519531 28.816406 24.242188 28.875 24.199219 C 29.019531 24.09375 29.203125 24.300781 29.660156 25.09375 C 29.953125 25.609375 30.015625 25.773438 29.941406 25.847656 C 29.875 25.914062 29.386719 25.953125 28.382812 25.972656 C 27.074219 25.996094 26.921875 25.988281 26.921875 25.871094 Z M 34.839844 20.371094 C 33.953125 19.828125 33.867188 19.675781 33.871094 18.605469 C 33.875 17.761719 34.054688 16.941406 34.417969 16.070312 C 35.019531 14.632812 35.15625 14.160156 35.15625 13.488281 C 35.15625 12.722656 35.0625 12.34375 34.789062 12.019531 C 34.382812 11.535156 33.605469 11.308594 32.335938 11.304688 C 31.65625 11.304688 31.515625 11.261719 31.515625 11.046875 C 31.515625 10.59375 32.832031 9.816406 33.972656 9.589844 C 34.339844 9.515625 34.949219 9.351562 35.316406 9.222656 C 36.765625 8.722656 36.671875 8.738281 38.007812 8.816406 C 39.226562 8.890625 39.238281 8.890625 40.105469 8.65625 C 40.933594 8.433594 41.0625 8.421875 42.5625 8.421875 C 44.203125 8.421875 45.125 8.542969 45.492188 8.808594 C 45.582031 8.871094 45.722656 8.972656 45.8125 9.039062 C 45.898438 9.101562 46.46875 9.238281 47.078125 9.347656 C 48.480469 9.59375 48.621094 9.648438 48.621094 9.933594 C 48.621094 10.347656 48.378906 10.679688 47.957031 10.835938 C 47.140625 11.140625 46.789062 11.707031 46.738281 12.785156 L 46.703125 13.507812 L 46.039062 14.171875 C 45.675781 14.535156 45.375 14.894531 45.375 14.96875 C 45.375 15.046875 45.4375 15.234375 45.507812 15.390625 C 45.59375 15.5625 45.617188 15.699219 45.570312 15.742188 C 45.527344 15.78125 44.894531 15.960938 44.15625 16.140625 C 43.421875 16.320312 42.488281 16.609375 42.082031 16.785156 C 41.675781 16.957031 40.9375 17.230469 40.449219 17.386719 C 39.019531 17.847656 38.972656 17.878906 37.753906 19.046875 C 36.820312 19.945312 35.761719 20.828125 35.621094 20.828125 C 35.605469 20.828125 35.253906 20.621094 34.839844 20.371094 Z M 59.195312 19.449219 C 59.042969 19.335938 59.042969 19.332031 59.191406 19.167969 C 59.273438 19.078125 59.386719 19.003906 59.445312 19.003906 C 59.582031 19.003906 59.585938 18.789062 59.453125 18.742188 C 59.382812 18.71875 59.410156 18.648438 59.53125 18.511719 C 59.761719 18.261719 59.757812 18.144531 59.523438 18.085938 C 59.421875 18.058594 59.199219 17.898438 59.039062 17.730469 C 58.675781 17.359375 58.703125 17.175781 59.125 17.175781 C 59.285156 17.175781 59.558594 17.132812 59.734375 17.082031 C 60.050781 16.984375 60.058594 16.988281 60.257812 17.257812 C 60.371094 17.40625 60.640625 17.699219 60.855469 17.90625 L 61.25 18.28125 L 61.082031 18.460938 C 60.988281 18.5625 60.898438 18.769531 60.886719 18.921875 C 60.863281 19.152344 60.808594 19.222656 60.582031 19.332031 C 60.167969 19.527344 59.394531 19.59375 59.195312 19.449219 Z M 57.34375 18.894531 C 57.214844 18.738281 57.3125 18.550781 57.542969 18.492188 C 57.707031 18.449219 57.730469 18.410156 57.675781 18.265625 C 57.644531 18.167969 57.613281 17.945312 57.613281 17.773438 L 57.613281 17.453125 L 57.96875 17.429688 C 58.476562 17.398438 58.59375 17.515625 58.691406 18.15625 C 58.738281 18.457031 58.746094 18.726562 58.710938 18.761719 C 58.457031 18.988281 57.503906 19.082031 57.34375 18.894531 Z M 47.175781 18.671875 C 46.824219 18.574219 46.40625 18.207031 46.40625 18 C 46.40625 17.707031 46.71875 17.328125 47.09375 17.160156 C 47.839844 16.832031 49.09375 16.90625 49.574219 17.308594 C 50.023438 17.6875 49.78125 18.234375 49.019531 18.574219 C 48.675781 18.726562 47.578125 18.789062 47.175781 18.671875 Z M 22.746094 17.914062 C 22.648438 17.894531 22.566406 17.855469 22.566406 17.824219 C 22.566406 17.742188 23.339844 17.019531 23.429688 17.019531 C 23.53125 17.019531 23.773438 17.566406 23.726562 17.691406 C 23.703125 17.753906 23.546875 17.839844 23.382812 17.886719 C 23.074219 17.972656 23.046875 17.972656 22.746094 17.914062 Z M 24.242188 17.050781 C 24.257812 16.949219 24.53125 16.769531 25.078125 16.503906 C 25.519531 16.285156 25.953125 16.042969 26.035156 15.964844 C 26.316406 15.703125 26.394531 15.785156 26.335938 16.277344 C 26.308594 16.527344 26.25 16.773438 26.203125 16.824219 C 26.09375 16.957031 25.53125 17.089844 24.816406 17.152344 C 24.253906 17.199219 24.214844 17.191406 24.242188 17.050781 Z M 58.539062 16.804688 C 58.304688 16.757812 57.703125 16.1875 57.746094 16.050781 C 57.8125 15.851562 58.15625 15.746094 58.464844 15.832031 C 59.121094 16.015625 59.476562 16.613281 59.03125 16.78125 C 58.921875 16.824219 58.804688 16.855469 58.773438 16.847656 C 58.746094 16.84375 58.640625 16.820312 58.539062 16.804688 Z M 19.089844 14.246094 C 18.910156 14.132812 19.050781 13.9375 19.378906 13.839844 C 19.546875 13.789062 19.769531 13.683594 19.875 13.605469 L 20.066406 13.460938 L 19.671875 13.410156 C 19.019531 13.320312 18.882812 13.257812 18.882812 13.042969 C 18.882812 12.691406 20.21875 11.980469 20.773438 12.035156 C 20.992188 12.054688 21.03125 12.105469 21.191406 12.554688 C 21.371094 13.058594 21.617188 13.488281 21.617188 13.296875 C 21.617188 13.132812 22.070312 12.601562 22.363281 12.421875 C 22.703125 12.210938 23.042969 12.203125 23.042969 12.40625 C 23.042969 12.605469 21.996094 13.472656 21.191406 13.941406 C 20.5625 14.308594 20.53125 14.316406 19.875 14.316406 C 19.503906 14.316406 19.152344 14.285156 19.089844 14.246094 Z M 21.992188 11.855469 C 21.640625 11.648438 22.03125 11.160156 22.75 10.90625 C 23.269531 10.722656 23.464844 10.710938 23.578125 10.847656 C 23.761719 11.078125 23.332031 11.554688 22.703125 11.816406 C 22.367188 11.957031 22.1875 11.96875 21.992188 11.855469 Z M 27 11.886719 C 26.738281 11.792969 26.246094 11.519531 26.191406 11.433594 C 26.160156 11.386719 26.132812 11.238281 26.132812 11.109375 C 26.132812 10.792969 26.917969 10.046875 27.613281 9.703125 C 28.382812 9.324219 28.417969 9.488281 27.722656 10.222656 C 27.125 10.859375 27.058594 11.042969 27.25 11.519531 L 27.339844 11.742188 L 27.425781 11.46875 C 27.523438 11.148438 27.96875 10.675781 28.488281 10.347656 C 28.6875 10.21875 29.355469 9.949219 29.96875 9.75 C 30.578125 9.546875 31.132812 9.355469 31.199219 9.316406 C 31.382812 9.214844 31.199219 9.179688 30.25 9.136719 C 29.351562 9.09375 29.140625 9.046875 29.140625 8.878906 C 29.140625 8.554688 30.347656 8.320312 33.152344 8.097656 C 34.523438 7.988281 35.0625 8.019531 35.394531 8.226562 C 35.480469 8.28125 35.554688 8.371094 35.554688 8.421875 C 35.554688 8.597656 34.726562 8.914062 33.8125 9.082031 C 33.3125 9.175781 32.726562 9.332031 32.507812 9.421875 C 31.785156 9.730469 29.785156 10.816406 29.175781 11.230469 C 28.84375 11.453125 28.425781 11.703125 28.242188 11.785156 C 27.929688 11.929688 27.273438 11.980469 27 11.886719 Z M 24.683594 11.535156 C 24.507812 11.433594 24.308594 11.046875 24.308594 10.804688 C 24.308594 10.546875 24.660156 10.210938 24.992188 10.148438 C 25.328125 10.085938 25.453125 10.132812 25.621094 10.390625 C 25.835938 10.71875 25.667969 11.164062 25.230469 11.421875 C 24.84375 11.648438 24.871094 11.644531 24.683594 11.535156 Z M 18.4375 27.21875 C 19.085938 26.894531 21.449219 25.355469 21.617188 25.152344 C 21.726562 25.019531 21.71875 25.015625 21.535156 25.070312 C 21.429688 25.101562 21.144531 25.21875 20.902344 25.328125 C 20.601562 25.46875 20.320312 25.53125 19.984375 25.539062 C 19.421875 25.550781 19.304688 25.628906 19.035156 26.160156 C 18.882812 26.460938 18.722656 26.621094 18.300781 26.890625 C 17.765625 27.234375 17.542969 27.492188 17.78125 27.492188 C 17.84375 27.492188 18.140625 27.371094 18.4375 27.21875 Z M 18.335938 26.085938 C 18.519531 25.902344 19.179688 24.476562 19.132812 24.359375 C 19.117188 24.3125 18.9375 24.183594 18.742188 24.082031 L 18.382812 23.890625 L 17.789062 24.1875 C 17.058594 24.546875 16.390625 25.0625 16.390625 25.261719 C 16.390625 25.34375 16.445312 25.457031 16.511719 25.511719 C 16.617188 25.597656 16.695312 25.554688 17.046875 25.21875 C 17.617188 24.671875 18.042969 24.320312 18.132812 24.320312 C 18.246094 24.320312 18.226562 24.574219 18.09375 24.898438 C 18.03125 25.050781 17.941406 25.34375 17.894531 25.542969 C 17.765625 26.121094 18.007812 26.414062 18.335938 26.085938 Z M 77.59375 23.15625 C 78.117188 23.050781 78.300781 22.976562 78.484375 22.792969 L 78.714844 22.5625 L 78.996094 22.777344 C 79.148438 22.894531 79.296875 22.972656 79.320312 22.949219 C 79.453125 22.816406 78.832031 22.007812 77.613281 20.722656 C 76.921875 19.996094 76.484375 19.714844 76.019531 19.691406 C 75.695312 19.675781 75.679688 19.6875 75.605469 19.953125 C 75.566406 20.105469 75.550781 20.527344 75.570312 20.882812 C 75.613281 21.558594 75.804688 22.050781 76.371094 22.953125 C 76.613281 23.339844 76.648438 23.34375 77.59375 23.15625 Z M 79.375 20.820312 C 79.070312 20.296875 78.230469 19.332031 77.695312 18.882812 C 77.386719 18.625 77.144531 18.375 77.160156 18.332031 C 77.175781 18.285156 77.277344 18.238281 77.386719 18.222656 C 77.667969 18.191406 78.160156 18.589844 78.910156 19.460938 C 79.253906 19.863281 79.550781 20.175781 79.570312 20.15625 C 79.671875 20.058594 78.398438 18.15625 77.605469 17.214844 C 76.925781 16.410156 75.941406 15.410156 75.886719 15.464844 C 75.824219 15.527344 76.335938 16.273438 76.773438 16.761719 C 77.28125 17.324219 77.105469 17.371094 76.246094 16.902344 C 75.878906 16.707031 75.554688 16.542969 75.527344 16.542969 C 75.5 16.542969 75.578125 16.765625 75.699219 17.039062 C 75.824219 17.3125 76.023438 17.777344 76.144531 18.078125 C 76.382812 18.660156 76.578125 18.839844 77.171875 19.019531 C 77.519531 19.125 78.351562 19.871094 78.957031 20.617188 C 79.351562 21.105469 79.617188 21.234375 79.375 20.820312 Z M 66.363281 13.765625 C 66.363281 13.722656 66.070312 13.496094 65.710938 13.261719 C 64.617188 12.550781 64.433594 12.496094 64.8125 12.996094 C 65.136719 13.421875 66.363281 14.027344 66.363281 13.765625 Z M 28.675781 3.863281 C 28.996094 3.652344 29.605469 3.269531 30.03125 3.011719 C 30.457031 2.753906 30.804688 2.515625 30.804688 2.484375 C 30.804688 2.339844 28.832031 3.085938 28.148438 3.484375 C 27.660156 3.773438 27.582031 3.890625 27.753906 4.085938 C 27.832031 4.171875 27.941406 4.242188 27.992188 4.242188 C 28.046875 4.242188 28.351562 4.070312 28.675781 3.863281 Z M 28.675781 3.863281 "/>
</g>
</svg>
